<svg width="48" height="48" viewBox="0 0 48 48" fill="none" xmlns="http://www.w3.org/2000/svg">
<rect width="48" height="48" rx="16" fill="#5081FB"/>
<path d="M17 23C18.1031 23 19 22.1031 19 21C19 19.8969 18.1031 19 17 19C15.8969 19 15 19.8969 15 21C15 22.1031 15.8969 23 17 23ZM31 23C32.1031 23 33 22.1031 33 21C33 19.8969 32.1031 19 31 19C29.8969 19 29 19.8969 29 21C29 22.1031 29.8969 23 31 23ZM32 24H30C29.45 24 28.9531 24.2219 28.5906 24.5813C29.85 25.2719 30.7437 26.5188 30.9375 28H33C33.5531 28 34 27.5531 34 27V26C34 24.8969 33.1031 24 32 24ZM24 24C25.9344 24 27.5 22.4344 27.5 20.5C27.5 18.5656 25.9344 17 24 17C22.0656 17 20.5 18.5656 20.5 20.5C20.5 22.4344 22.0656 24 24 24ZM26.4 25H26.1406C25.4906 25.3125 24.7688 25.5 24 25.5C23.2312 25.5 22.5125 25.3125 21.8594 25H21.6C19.6125 25 18 26.6125 18 28.6V29.5C18 30.3281 18.6719 31 19.5 31H28.5C29.3281 31 30 30.3281 30 29.5V28.6C30 26.6125 28.3875 25 26.4 25ZM19.4094 24.5813C19.0469 24.2219 18.55 24 18 24H16C14.8969 24 14 24.8969 14 26V27C14 27.5531 14.4469 28 15 28H17.0594C17.2563 26.5188 18.15 25.2719 19.4094 24.5813Z" fill="white"/>
</svg>
