<svg width="48" height="48" viewBox="0 0 48 48" fill="none" xmlns="http://www.w3.org/2000/svg">
<rect width="48" height="48" rx="16" fill="#5081FB"/>
<path d="M22.7157 31.9832L20.8096 31.4301C20.6096 31.3739 20.4971 31.1645 20.5534 30.9645L24.8187 16.2719C24.8749 16.0719 25.0843 15.9594 25.2843 16.0157L27.1904 16.5688C27.3904 16.625 27.5029 16.8344 27.4466 17.0344L23.1813 31.727C23.1219 31.9269 22.9157 32.0426 22.7157 31.9832V31.9832ZM19.1535 28.4772L20.5128 27.0273C20.6565 26.8742 20.6471 26.6305 20.4878 26.4899L17.6567 23.9994L20.4878 21.509C20.6471 21.3684 20.6596 21.1247 20.5128 20.9715L19.1535 19.5217C19.0129 19.3717 18.7754 19.3623 18.6223 19.506L14.1195 23.7245C13.9602 23.8713 13.9602 24.1244 14.1195 24.2713L18.6223 28.4928C18.7754 28.6366 19.0129 28.6303 19.1535 28.4772V28.4772ZM29.3777 28.496L33.8805 24.2744C34.0398 24.1275 34.0398 23.8744 33.8805 23.7276L29.3777 19.5029C29.2277 19.3623 28.9902 19.3685 28.8465 19.5185L27.4872 20.9684C27.3435 21.1215 27.3529 21.3653 27.5122 21.5059L30.3433 23.9994L27.5122 26.4899C27.3529 26.6305 27.3404 26.8742 27.4872 27.0273L28.8465 28.4772C28.9871 28.6303 29.2246 28.6366 29.3777 28.496V28.496Z" fill="white"/>
</svg>
