<svg width="145" height="35" viewBox="0 0 145 35" fill="none" xmlns="http://www.w3.org/2000/svg">
<path fill-rule="evenodd" clip-rule="evenodd" d="M88.7529 34.0493H141.247C143.311 34.0493 145 32.5706 145 30.7224V3.28582C145 1.47862 143.311 0 141.247 0H88.7529C86.6888 0 85 1.47862 85 3.28582V30.7635C85 32.5706 86.6888 34.0493 88.7529 34.0493ZM96.4376 24.3483V13.3508H94.1977V24.3003H92.6251V26.4134H98.7251C101.013 26.4134 102.728 25.8371 103.777 24.7325C104.825 23.628 105.349 21.8991 105.349 19.4499V14.6474C105.349 12.2462 104.825 10.4693 103.777 9.36475C102.728 8.26019 101.013 7.6839 98.7251 7.6839H92.6251V9.74894H94.1977H96.4376H98.3915C99.2017 9.74894 99.9166 9.84499 100.488 9.98906C101.108 10.1331 101.585 10.4213 101.966 10.8055C102.347 11.1897 102.633 11.7179 102.824 12.3423C103.014 13.0146 103.11 13.831 103.11 14.7915V19.3058C103.11 20.3143 103.014 21.1307 102.824 21.755C102.633 22.3793 102.347 22.9076 101.966 23.2918C101.585 23.676 101.06 23.9642 100.488 24.1082C99.9166 24.2523 99.2017 24.3483 98.3915 24.3483H96.4376ZM111.688 24.3484H120.886V26.4135H109.448V7.68399H120.695V9.79707H111.64V24.3484H111.688ZM120.552 15.9922V18.0573H114.023V15.9922H120.552ZM129.559 24.3484L126.509 13.1588H124.174L127.939 26.4135H132.228L137.47 7.68399H135.087L130.512 24.3484H129.559ZM122.601 7.68399L123.459 10.6615H125.794L124.984 7.68399H122.601Z" fill="white"/>
<path d="M11.3479 21.6971H3.62824L2.3159 26.3274H0L5.45523 7.69995H9.52092L14.9762 26.3274H12.6603L11.3479 21.6971ZM7.33368 8.65793L4.22008 19.6215H10.7561L7.64247 8.65793H7.33368Z" fill="white"/>
<path d="M17.6087 7.69995H19.7702V24.2518H29.1882V26.3274H17.6087V7.69995Z" fill="white"/>
<path d="M34.9858 7.69995V20.0473C34.9858 21.5552 35.3203 22.6995 35.9893 23.4801C36.6755 24.2429 37.6791 24.6243 39 24.6243C40.3209 24.6243 41.3159 24.2429 41.9849 23.4801C42.6711 22.6995 43.0142 21.5552 43.0142 20.0473V7.69995H45.1757V20.0473C45.1757 22.2116 44.6268 23.8615 43.5289 24.9969C42.431 26.1323 40.9213 26.7 39 26.7C37.0787 26.7 35.569 26.1323 34.4711 24.9969C33.3732 23.8615 32.8243 22.2116 32.8243 20.0473V7.69995H34.9858Z" fill="white"/>
<path d="M60.3913 26.3274H58.2298V20.1005C58.2298 19.6393 58.1269 19.2844 57.921 19.0361C57.7152 18.7877 57.3549 18.6635 56.8403 18.6635H51.2306V26.3274H49.0691V7.69995H55.5022C56.4286 7.69995 57.2348 7.84187 57.921 8.12572C58.6072 8.39183 59.1733 8.75551 59.6194 9.21676C60.0825 9.67801 60.4256 10.2191 60.6486 10.84C60.8888 11.4432 61.0089 12.0818 61.0089 12.756V13.5543C61.0089 14.2462 60.8202 14.938 60.4428 15.6299C60.0825 16.3218 59.5164 16.854 58.7444 17.2266V17.5459C59.2591 17.6346 59.6622 17.8475 59.9539 18.1845C60.2455 18.5216 60.3913 19.0006 60.3913 19.6215V26.3274ZM51.2306 16.5879H55.2449C56.4629 16.5879 57.3635 16.3218 57.9468 15.7896C58.5472 15.2396 58.8474 14.4413 58.8474 13.3946V12.9156C58.8474 11.9754 58.5472 11.2214 57.9468 10.6537C57.3635 10.0683 56.4629 9.77558 55.2449 9.77558H51.2306V16.5879Z" fill="white"/>
<path d="M74.3718 21.6971H66.6521L65.3397 26.3274H63.0238L68.4791 7.69995H72.5448L78 26.3274H75.6841L74.3718 21.6971ZM70.3575 8.65793L67.2439 19.6215H73.7799L70.6663 8.65793H70.3575Z" fill="white"/>
</svg>
